# AST/ASF file generated using VICON BodyLanguage
# -----------------------------------------------
:version 1.10
:name VICON
:units
  mass 1.0
  length 0.45
  angle deg
:documentation
   .ast/.asf automatically generated from VICON data using
   VICON BodyBuilder and BodyLanguage model FoxedUp or BRILLIANT.MOD
:root
   order TX TY TZ RX RY RZ
   axis XYZ
   position 0 0 0  
   orientation 0 0 0 
:bonedata
  begin
     id 1 
     name lhipjoint
     direction 0.589753 -0.68606 0.426044 
     length 2.54082 
     axis 0 0 0  XYZ
  end
  begin
     id 2 
     name lfemur
     direction 0.34202 -0.939693 0  
     length 7.04539  
     axis 0 0 20  XYZ
    dof rx ry rz
    limits (-160.0 20.0)
           (-70.0 70.0)
           (-60.0 70.0)
  end
  begin
     id 3 
     name ltibia
     direction 0.34202 -0.939693 0   
     length 7.83772   
     axis 0 0 20   XYZ
    dof rx
    limits (-10.0 170.0)
  end
  begin
     id 4 
     name lfoot
     direction 0.0596604 -0.163915 0.984669   
     length 2.39542   
     axis -90 7.62852e-016 20   XYZ
    dof rx rz
    limits (-45.0 90.0)
           (-70.0 20.0)
  end
  begin
     id 5 
     name ltoes
     direction 1.53514e-011 -4.21954e-011 1   
     length 1.2047   
     axis -90 7.62852e-016 20   XYZ
    dof rx
    limits (-90.0 20.0)
  end
  begin
     id 6 
     name rhipjoint
     direction -0.580585 -0.69168 0.429534   
     length 2.52018  
     axis 0 0 0  XYZ 
  end
  begin
     id 7 
     name rfemur
     direction -0.34202 -0.939693 0   
     length 7.0101   
     axis 0 0 -20   XYZ
    dof rx ry rz
    limits (-160.0 20.0)
           (-70.0 70.0)
           (-70.0 60.0)
  end
  begin
     id 8 
     name rtibia
     direction -0.34202 -0.939693 0   
     length 7.70628   
     axis 0 0 -20   XYZ
    dof rx
    limits (-10.0 170.0)
 end
 begin
     id 9 
     name rfoot
     direction -0.0696237 -0.19129 0.979061   
     length 2.52466  
     axis -90 -7.62852e-016 -20   XYZ
    dof rx rz
    limits (-45.0 90.0)
           (-20.0 70.0)
  end
  begin
     id 10 
     name rtoes
     direction -1.53519e-011 -4.21793e-011 1   
     length 1.266   
     axis -90 -7.62852e-016 -20   XYZ
    dof rx
    limits (-90.0 20.0)
  end
  begin
     id 11 
     name lowerback
     direction 0.00381965 0.995707 -0.0924856   
     length 2.20825   
     axis 0 0 0   XYZ
    dof rx ry rz
    limits (-20.0 45.0)
           (-30.0 30.0)
           (-30.0 30.0)
  end
  begin
     id 12 
     name upperback
     direction -0.0139043 0.999634 -0.0231929   
     length 2.21517   
     axis 0 0 0   XYZ
    dof rx ry rz
    limits (-20.0 45.0)
           (-30.0 30.0)
           (-30.0 30.0)
  end
  begin
     id 13 
     name thorax
     direction -0.0143933 0.999691 0.0202892   
     length 2.22911   
     axis 0 0 0   XYZ
    dof rx ry rz
    limits (-20.0 45.0)
           (-30.0 30.0)
           (-30.0 30.0)
  end
  begin
     id 14 
     name lowerneck
     direction -0.0251153 0.981819 0.188153   
     length 1.61782   
     axis 0 0 0   XYZ
    dof rx ry rz
    limits (-20.0 45.0)
           (-30.0 30.0)
           (-30.0 30.0)
  end
  begin
     id 15 
     name upperneck
     direction 0.0563891 0.969357 -0.239095   
     length 1.64526   
     axis 0 0 0   XYZ
    dof rx ry rz
    limits (-20.0 45.0)
           (-30.0 30.0)
           (-30.0 30.0)
  end
  begin
     id 16
     name head
     direction 0.0208328 0.99459 -0.101773  
     length 1.67436  
     axis 0 0 0   XYZ
    dof rx ry rz
    limits (-20.0 45.0)
           (-30.0 30.0)
           (-30.0 30.0)
  end
  begin
     id 17 
     name lclavicle
     direction 0.917689 0.397224 0.00772059  
     length 3.31102  
     axis 0 0 0   XYZ
    dof ry rz
    limits (-20.0 10.0)
           (0.0 20.0)
  end
  begin
     id 18 
     name lhumerus
     direction 1 -4.4896e-011 2.32308e-027   
     length 5.25537   
     axis 180 -30 -90   XYZ
    dof rx ry rz
    limits (-60.0 90.0)
           (-90.0 90.0)
           (-90.0 90.0)
  end
  begin
     id 19
     name lradius
     direction 1 -4.49005e-011 -2.04271e-027   
     length 3.38855   
     axis 180 -30 -90   XYZ
    dof rx
    limits (-10.0 170.0)
  end
  begin
     id 20
     name lwrist
     direction 1 -4.48892e-011 2.56952e-028   
     length 1.69428   
     axis -5.12785e-016 90 90   XYZ
    dof ry
    limits (-180.0 0.0)
 end
  begin
     id 21 
     name lhand
     direction 1 -4.48966e-011 5.13905e-028   
     length 0.614516   
     axis -3.27915e-016 90 90   XYZ
    dof rx rz
    limits (-90.0 90.0)
           (-45.0 45.0)
  end
  begin
     id 22 
     name lfingers
     direction 1 -4.48979e-011 1.02781e-027   
     length 0.495439   
     axis -6.5583e-016 90 90   XYZ
    dof rx
    limits (0.0 90.0)
  end
  begin
     id 23
     name lthumb
     direction 0.707107 -6.35001e-011 0.707107   
     length 0.711354   
     axis -90 45 2.85299e-015   XYZ
    dof rx rz
    limits (-45.0 45.0)
           (-45.0 45.0)
  end
  begin
     id 24 
     name rclavicle
     direction -0.938556 0.342765 -0.0403177   
     length 3.27019  
     axis 0 0 0   XYZ 
    dof ry rz
    limits (-10.0 20.0)
           (-20.0 0.0)
  end
  begin
     id 25 
     name rhumerus
     direction -1 -4.48966e-011 2.52291e-027  
     length 5.38183   
     axis 180 30 90   XYZ
    dof rx ry rz
    limits (-90.0 60.0)
           (-90.0 90.0)
           (-90.0 90.0)
  end
  begin
     id 26 
     name rradius
     direction -1 -4.4896e-011 1.5797e-027   
     length 3.16988   
     axis 180 30 90   XYZ
    dof rx
    limits (-10.0 170.0)
  end
  begin
     id 27 
     name rwrist
     direction -1 -4.48947e-011 2.56952e-028   
     length 1.58494   
     axis -5.12785e-016 -90 -90   XYZ
    dof ry
    limits (-180.0 0.0)
  end
  begin
     id 28
     name rhand
     direction -1 -4.49098e-011 5.13905e-028   
     length 0.637679   
     axis -3.27915e-016 -90 -90   XYZ
    dof rx rz
    limits (-90.0 90.0)
           (-45.0 45.0)
  end
  begin
     id 29
     name rfingers
     direction -1 -4.49026e-011 1.02781e-027   
     length 0.514113   
     axis -6.5583e-016 -90 -90   XYZ
    dof rx
    limits (0.0 90.0)
  end
  begin
     id 30
     name rthumb
     direction -0.707107 -6.3491e-011 0.707107   
     length 0.738167   
     axis -90 -45 -2.85299e-015   XYZ
    dof rx rz
    limits (-45.0 45.0)
           (-45.0 45.0)
  end
:hierarchy
  begin
    root lhipjoint rhipjoint lowerback
    lhipjoint lfemur
    lfemur ltibia
    ltibia lfoot
    lfoot ltoes
    rhipjoint rfemur
    rfemur rtibia
    rtibia rfoot
    rfoot rtoes
    lowerback upperback
    upperback thorax
    thorax lowerneck lclavicle rclavicle
    lowerneck upperneck
    upperneck head
    lclavicle lhumerus
    lhumerus lradius
    lradius lwrist
    lwrist lhand lthumb
    lhand lfingers
    rclavicle rhumerus
    rhumerus rradius
    rradius rwrist
    rwrist rhand rthumb
    rhand rfingers
  end

#!OML:ASF H:\Swim\Project 1\Capture day 1\Session 1\swimmer.ASF
:FULLY-SPECIFIED
:DEGREES
3858
root 5.79774 10.346 15.9981 92.4718 0.581995 -1.58045
lowerback -2.53967 1.2141 -3.25829
upperback -5.90858 1.65633 0.0558211
thorax -4.7806 0.995985 1.84969
lowerneck -18.1197 -7.43524 -9.24157
upperneck 22.5224 -10.5277 11.3522
head 11.4729 -4.20542 4.05636
rclavicle -2.38542e-015 7.95139e-016
rhumerus 50.2463 -6.39331 34.8723
rradius 30.8354
rwrist -47.0312
rhand -5.25703 -22.64
rfingers 7.12502
rthumb 20.5464 -51.5727
lclavicle -2.38542e-015 7.95139e-016
lhumerus 69.2167 20.4744 -7.38818
lradius 23.3305
lwrist -0.56803
lhand 8.14406 -331.248
lfingers 7.12502
lthumb 33.364 415.674
rfemur -7.14899 7.43051 -3.51333
rtibia 68.2087
rfoot 11.9106 -17.5701
rtoes -0.764084
lfemur -7.65157 -8.98062 -3.12279
ltibia 56.0524
lfoot 12.0147 19.8322
ltoes 24.036
3859
root 5.79582 10.3354 15.9968 92.9228 0.597061 -1.54581
lowerback -2.66922 1.18904 -3.21798
upperback -5.64569 1.62924 0.0472974
thorax -4.42703 0.971056 1.82632
lowerneck -16.8874 -7.39139 -9.36038
upperneck 21.5724 -10.4708 11.5495
head 10.8915 -4.23154 4.16511
rclavicle 1.31198e-014 5.91384e-015
rhumerus 49.2905 -5.13797 36.35
rradius 30.878
rwrist -48.4221
rhand -5.11743 -22.8814
rfingers 7.12502
rthumb 20.6806 -51.7995
lclavicle 1.31198e-014 5.91384e-015
lhumerus 67.1169 19.901 -10.2752
lradius 23.37
lwrist 0.588532
lhand 8.65926 -330.916
lfingers 7.12502
lthumb 33.8536 415.9
rfemur -7.03247 8.36141 -3.28096
rtibia 65.2484
rfoot 12.6013 -18.5014
rtoes -0.64459
lfemur -7.35382 -10.0965 -3.09631
ltibia 52.5022
lfoot 12.9668 20.5065
ltoes 24.1247
3860
root 5.79374 10.3244 15.9937 93.3514 0.610969 -1.50216
lowerback -2.63583 0.910521 -2.72637
upperback -5.45772 1.24384 -0.0895901
thorax -4.20908 0.745028 1.41798
lowerneck -15.869 -7.11348 -9.76154
upperneck 20.8416 -10.1018 12.045
head 10.4368 -4.09695 4.48076
rclavicle 2.78299e-015 -7.40473e-015
rhumerus 48.9865 -4.04244 37.2558
rradius 30.836
rwrist -49.3448
rhand -4.79018 -22.9916
rfingers 7.12502
rthumb 20.995 -51.8752
lclavicle 2.78299e-015 -7.40473e-015
lhumerus 64.2886 18.8895 -14.1414
lradius 23.502
lwrist 2.20271
lhand 9.07281 -330.519
lfingers 7.12502
lthumb 34.2464 416.209
rfemur -6.8967 9.30644 -3.05356
rtibia 62.28
rfoot 13.1358 -19.5803
rtoes -0.210404
lfemur -7.03946 -11.319 -3.05988
ltibia 48.927
lfoot 14.0167 20.941
ltoes 23.6988
3861
root 5.79136 10.3127 15.9888 93.7676 0.619446 -1.45237
lowerback -2.50249 0.432627 -1.88471
upperback -5.31595 0.579569 -0.339535
thorax -4.08977 0.363939 0.697699
lowerneck -15.0745 -6.6627 -10.4241
upperneck 20.2888 -9.50265 12.8107
head 10.0885 -3.83949 4.96921
rclavicle -6.58474e-016 -4.15274e-015
rhumerus 49.1647 -3.11313 37.7201
rradius 30.7294
rwrist -49.8345
rhand -4.28713 -22.9606
rfingers 7.12502
rthumb 21.4782 -51.7899
lclavicle -6.58474e-016 -4.15274e-015
lhumerus 60.9225 17.3982 -18.7825
lradius 23.7587
lwrist 4.2642
lhand 9.47009 -330.1
lfingers 7.12502
lthumb 34.6236 416.543
rfemur -6.76156 10.2608 -2.84151
rtibia 59.3201
rfoot 13.5177 -20.6959
rtoes 0.440952
lfemur -6.73458 -12.6483 -3.01488
ltibia 45.3592
lfoot 15.1554 21.0878
ltoes 22.8182
3862
root 5.7886 10.2998 15.983 94.1904 0.633624 -1.39034
lowerback -2.29793 -0.229094 -0.723359
upperback -5.22661 -0.337511 -0.682727
thorax -4.09373 -0.157503 -0.294135
lowerneck -14.5728 -6.07036 -11.3843
upperneck 19.9544 -8.70565 13.8477
head 9.86482 -3.47381 5.6343
rclavicle 3.18055e-015 -4.87022e-015
rhumerus 49.7934 -2.37279 37.7599
rradius 30.5703
rwrist -49.9369
rhand -3.65267 -22.7953
rfingers 7.12502
rthumb 22.0875 -51.5538
lclavicle 3.18055e-015 -4.87022e-015
lhumerus 57.2029 15.3293 -23.9292
lradius 24.1439
lwrist 6.58621
lhand 9.87292 -329.709
lfingers 7.12502
lthumb 35.0058 416.846
rfemur -6.65125 11.2171 -2.63433
rtibia 56.381
rfoot 13.7759 -21.72
rtoes 1.17464
lfemur -6.48236 -14.0796 -2.93908
ltibia 41.8402
lfoot 16.3415 20.9539
ltoes 21.62
3863
root 5.78472 10.2863 15.9763 94.5843 0.64635 -1.35159
lowerback -2.04908 -0.952879 0.549223
upperback -5.15158 -1.33615 -1.06529
thorax -4.19642 -0.725101 -1.38283
lowerneck -14.3272 -5.44897 -12.4952
upperneck 19.7642 -7.85097 14.9873
head 9.72353 -3.07228 6.37356
rclavicle -1.82882e-014 -1.17283e-014
rhumerus 50.6224 -1.73836 37.5603
rradius 30.3832
rwrist -49.7479
rhand -2.94732 -22.509
rfingers 7.12502
rthumb 22.7645 -51.1859
lclavicle -1.82882e-014 -1.17283e-014
lhumerus 53.556 12.7878 -29.0152
lradius 24.6368
lwrist 8.97706
lhand 10.2667 -329.377
lfingers 7.12502
lthumb 35.3792 417.09
rfemur -6.56122 12.2228 -2.44026
rtibia 53.4817
rfoot 13.9741 -22.5363
rtoes 1.73637
lfemur -6.25277 -15.5808 -2.85077
ltibia 38.4155
lfoot 17.5076 20.5998
ltoes 20.2469
3864
root 5.7797 10.2719 15.9698 94.9352 0.667349 -1.32698
lowerback -1.82547 -1.59211 1.68895
upperback -5.04457 -2.21368 -1.41556
thorax -4.29996 -1.2251 -2.36059
lowerneck -14.1967 -4.92873 -13.5424
upperneck 19.5884 -7.1169 16.0306
head 9.60085 -2.72577 7.05076
rclavicle 7.15625e-015 5.1684e-015
rhumerus 51.3135 -1.09229 37.3285
rradius 30.1932
rwrist -49.3363
rhand -2.23487 -22.1602
rfingers 7.12502
rthumb 23.4481 -50.7515
lclavicle 7.15625e-015 5.1684e-015
lhumerus 50.3907 10.0592 -33.5088
lradius 25.2012
lwrist 11.2888
lhand 10.6279 -329.118
lfingers 7.12502
lthumb 35.7217 417.266
rfemur -6.47806 13.2923 -2.24267
rtibia 50.6374
rfoot 14.0983 -23.1113
rtoes 2.22624
lfemur -6.05554 -17.1378 -2.74113
ltibia 35.1422
lfoot 18.5583 20.1188
ltoes 19.1433
